<?xml version="1.0" encoding="UTF-8" standalone="no"?>
<svg
   xmlns:dc="http://purl.org/dc/elements/1.1/"
   xmlns:cc="http://creativecommons.org/ns#"
   xmlns:rdf="http://www.w3.org/1999/02/22-rdf-syntax-ns#"
   xmlns:svg="http://www.w3.org/2000/svg"
   xmlns="http://www.w3.org/2000/svg"
   xmlns:sodipodi="http://sodipodi.sourceforge.net/DTD/sodipodi-0.dtd"
   xmlns:inkscape="http://www.inkscape.org/namespaces/inkscape"
   width="128"
   height="128"
   viewBox="0 0 33.866666 33.866666"
   version="1.1"
   id="svg8"
   inkscape:version="1.0.1 (c497b03c, 2020-09-10)"
   sodipodi:docname="logo.svg"
   inkscape:export-filename="/Users/fgordillo/Documents/projects/juju-and-paco/assets/logo.png"
   inkscape:export-xdpi="96"
   inkscape:export-ydpi="96">
  <defs
     id="defs2" />
  <sodipodi:namedview
     id="base"
     pagecolor="#ffffff"
     bordercolor="#666666"
     borderopacity="1.0"
     inkscape:pageopacity="0.0"
     inkscape:pageshadow="2"
     inkscape:zoom="4.1631373"
     inkscape:cx="54.591084"
     inkscape:cy="65.099004"
     inkscape:document-units="mm"
     inkscape:current-layer="layer1"
     inkscape:document-rotation="0"
     showgrid="false"
     units="px"
     inkscape:window-width="1252"
     inkscape:window-height="943"
     inkscape:window-x="356"
     inkscape:window-y="23"
     inkscape:window-maximized="0" />
  <metadata
     id="metadata5">
    <rdf:RDF>
      <cc:Work
         rdf:about="">
        <dc:format>image/svg+xml</dc:format>
        <dc:type
           rdf:resource="http://purl.org/dc/dcmitype/StillImage" />
        <dc:title></dc:title>
      </cc:Work>
    </rdf:RDF>
  </metadata>
  <g
     inkscape:label="Layer 1"
     inkscape:groupmode="layer"
     id="layer1">
    <g
       id="g951"
       transform="translate(1.2030461,-0.08340523)">
      <path
         id="rect835"
         style="fill:#c1272d;fill-opacity:1;stroke-width:2.04881;stroke-linecap:round;stroke-linejoin:round;stroke-miterlimit:4;stroke-dasharray:none;stroke-dashoffset:0.755905"
         d="m 25.912109,81.945312 c 13.511382,9.693954 28.817982,19.606158 35.03125,37.796878 V 81.945312 Z"
         transform="scale(0.26458333)" />
      <path
         id="rect839"
         style="fill:#006a44;fill-opacity:1;stroke-width:3;stroke-linecap:round;stroke-linejoin:round;stroke-miterlimit:4;stroke-dasharray:none;stroke-dashoffset:0.755905"
         d="M 1.9882812,44.150391 C 1.699489,46.160008 1.6135557,48.152126 1.7617188,50.083984 2.8700243,64.534883 13.653772,73.150376 25.912109,81.945312 h 35.03125 V 44.150391 Z"
         transform="scale(0.26458333)" />
      <path
         id="rect841"
         style="fill:#fdb913;fill-opacity:1;stroke-width:3;stroke-linecap:round;stroke-linejoin:round;stroke-miterlimit:4;stroke-dasharray:none;stroke-dashoffset:0.755905"
         d="M 33.240234,12.828125 C 18.194365,12.620917 4.1766872,28.921934 1.9882812,44.150391 H 60.943359 v -8.28125 C 60.751405,36.469291 60.559461,37.072031 60.375,37.695312 52.761521,19.748876 42.79443,12.959703 33.240234,12.828125 Z"
         transform="scale(0.26458333)" />
      <path
         id="rect843"
         style="fill:#aa151b;fill-opacity:1;stroke-width:3;stroke-linecap:round;stroke-linejoin:round;stroke-miterlimit:4;stroke-dasharray:none;stroke-dashoffset:0.755905"
         d="M 88.039062,8.8847656 C 78.391223,8.6355305 68.489217,15.095311 62.029297,32.703125 H 115.82031 C 111.86609,20.081777 100.15735,9.1978205 88.039062,8.8847656 Z"
         transform="scale(0.26458333)" />
      <path
         id="rect843-9"
         style="fill:#f1bf00;fill-opacity:1;stroke-width:3;stroke-linecap:round;stroke-linejoin:round;stroke-miterlimit:4;stroke-dasharray:none;stroke-dashoffset:0.755905"
         d="m 62.029297,32.703125 c -0.274645,0.748599 -0.544743,1.515412 -0.806641,2.304687 v 28.041016 30.34375 H 75.705078 C 93.102413,73.533892 118.31595,59.161569 117.18164,39.972656 117.03706,37.526774 116.56642,35.0846 115.82031,32.703125 Z"
         transform="scale(0.26458333)" />
      <path
         id="rect843-7"
         style="fill:#aa151b;fill-opacity:1;stroke-width:3;stroke-linecap:round;stroke-linejoin:round;stroke-miterlimit:4;stroke-dasharray:none;stroke-dashoffset:0.755905"
         d="m 61.224609,93.392578 v 25.255862 c 2.517682,-9.55593 7.944341,-17.79501 14.480469,-25.255862 z"
         transform="scale(0.26458333)" />
      <path
         style="fill:none;stroke:#000000;stroke-width:0.79375;stroke-linecap:round;stroke-linejoin:round;stroke-miterlimit:4;stroke-dasharray:none;stroke-opacity:1"
         d="M 16.12472,31.681583 C 18.369603,22.228205 31.42163,17.633276 31.004469,10.576213 30.587618,3.524361 19.946361,-3.4478177 15.974331,9.9733965 10.369045,-3.2393425 -0.05877726,6.4071887 0.46611932,13.251177 1.0825725,21.288945 12.989323,22.502015 16.12472,31.681583 Z"
         id="path833"
         sodipodi:nodetypes="cscsc"
         inkscape:transform-center-x="0.44463943"
         inkscape:transform-center-y="-14.434291" />
    </g>
  </g>
</svg>
