<svg
   xmlns="http://www.w3.org/2000/svg"
   viewBox="0 0 180 250"
>
   <path
      style="fill: #ffffff10;"
      d="M 120 20 L 120 30 L 110 30 L 110 40 L 100 40 L 100 50 L 90 50 L 90 60 L 80 60 L 80 70 L 90 70 L 90 80 L 100 80 L 100 70 L 110 70 L 110 60 L 120 60 L 120 50 L 130 50 L 130 60 L 140 60 L 140 70 L 130 70 L 130 80 L 120 80 L 120 90 L 110 90 L 110 100 L 100 100 L 100 110 L 90 110 L 90 100 L 80 100 L 80 90 L 70 90 L 70 80 L 60 80 L 60 90 L 50 90 L 50 100 L 40 100 L 40 110 L 30 110 L 30 120 L 20 120 L 20 130 L 30 130 L 30 140 L 40 140 L 40 150 L 50 150 L 50 160 L 60 160 L 60 170 L 70 170 L 70 160 L 80 160 L 80 150 L 90 150 L 90 140 L 100 140 L 100 150 L 110 150 L 110 160 L 120 160 L 120 170 L 130 170 L 130 180 L 140 180 L 140 190 L 130 190 L 130 200 L 120 200 L 120 190 L 110 190 L 110 180 L 100 180 L 100 170 L 90 170 L 90 180 L 80 180 L 80 190 L 90 190 L 90 200 L 100 200 L 100 210 L 110 210 L 110 220 L 120 220 L 120 230 L 130 230 L 130 220 L 140 220 L 140 210 L 150 210 L 150 200 L 160 200 L 160 190 L 160 180 L 160 170 L 150 170 L 150 160 L 140 160 L 140 150 L 130 150 L 130 140 L 120 140 L 120 130 L 110 130 L 110 120 L 120 120 L 120 110 L 130 110 L 130 100 L 140 100 L 140 90 L 150 90 L 150 80 L 160 80 L 160 70 L 160 60 L 160 50 L 150 50 L 150 40 L 140 40 L 140 30 L 130 30 L 130 20 L 120 20 z M 60 110 L 70 110 L 70 120 L 80 120 L 80 130 L 70 130 L 70 140 L 60 140 L 60 130 L 50 130 L 50 120 L 60 120 L 60 110 z "
   />
</svg>
